<svg width="518" height="521" viewBox="0 0 518 521" fill="none" xmlns="http://www.w3.org/2000/svg">
<path d="M120.5 319L377.5 1.5L270.5 254H413.5L120.5 519.5L233 319H120.5Z" fill="#F1FF55" stroke="#9B9B9B" stroke-width="3" stroke-linecap="round"/>
<rect x="68.918" y="113.914" width="59.3908" height="485.812" transform="rotate(-45 68.918 113.914)" fill="#FF6767" stroke="#707070" stroke-width="5"/>
<mask id="path-3-inside-1_311_44" fill="white">
<path d="M518 261C518 404.042 402.042 520 259 520C115.958 520 0 404.042 0 261C0 117.958 115.958 2 259 2C402.042 2 518 117.958 518 261ZM51.8 261C51.8 375.433 144.567 468.2 259 468.2C373.433 468.2 466.2 375.433 466.2 261C466.2 146.567 373.433 53.8 259 53.8C144.567 53.8 51.8 146.567 51.8 261Z"/>
</mask>
<path d="M518 261C518 404.042 402.042 520 259 520C115.958 520 0 404.042 0 261C0 117.958 115.958 2 259 2C402.042 2 518 117.958 518 261ZM51.8 261C51.8 375.433 144.567 468.2 259 468.2C373.433 468.2 466.2 375.433 466.2 261C466.2 146.567 373.433 53.8 259 53.8C144.567 53.8 51.8 146.567 51.8 261Z" fill="#FF6767" stroke="#707070" stroke-width="10" mask="url(#path-3-inside-1_311_44)"/>
</svg>
