<svg width="1078" height="1858" viewBox="0 0 1078 1858" fill="none" xmlns="http://www.w3.org/2000/svg">
<path d="M153.479 1858C145.18 1858 139.564 1849.54 142.785 1841.89L320.315 1420.43C323.095 1413.84 325.077 1406.93 326.22 1399.86L542.526 61.7018C544.341 50.4778 560.497 50.5038 562.275 61.7336L774.252 1400.46C775.413 1407.79 777.477 1414.95 780.397 1421.78L960.664 1843.19C963.664 1850.2 958.519 1858 950.89 1858V1858C946.698 1858 942.898 1855.54 941.186 1851.71L753.361 1431.92C749.97 1424.34 747.644 1416.33 746.449 1408.11L562.396 142.071C560.736 130.656 544.264 130.656 542.604 142.071L358.551 1408.11C357.356 1416.33 355.03 1424.34 351.639 1431.92L164.071 1851.14C162.203 1855.31 158.055 1858 153.479 1858V1858Z" fill="#000000"/>
<rect x="62" y="1832" width="979" height="26" rx="13" fill="#000000"/>
<path d="M573.5 199L511 306M511 306L607 402M511 306H587M511 306L426 402M511 306L356.5 354M607 402L487.259 529.043C485.433 530.98 485.445 534.008 487.286 535.931L654.5 710.5M607 402H495.5M607 402H677M654.5 710.5L413 952M654.5 710.5H443.5M654.5 710.5L785 952M654.5 710.5L866 831.25M413 952L722.748 1270.51C725.83 1273.68 723.584 1279 719.163 1279H380.785C376.372 1279 374.123 1273.7 377.189 1270.53L685 952M413 952H685M413 952H310.5M685 952L443.5 710.5M685 952H785M443.5 710.5L618.026 535.974C619.954 534.046 619.982 530.928 618.087 528.966L495.5 402M443.5 710.5L310.5 952M443.5 710.5L221.75 831.25M495.5 402L587 306M495.5 402H426M587 306L530.5 199M587 306L677 402M587 306L745.75 354M310.5 952L221.75 831.25M310.5 952H155.25M221.75 831.25L17.2463 942.609C12.6954 945.087 14.4555 952 19.6375 952H155.25M221.75 831.25L155.25 952M785 952L866 831.25M785 952H931.25M866 831.25L1061.14 942.658C1065.59 945.2 1063.79 952 1058.66 952H931.25M866 831.25L931.25 952M677 402H870.688C876.441 402 877.642 393.879 872.135 392.214L745.75 354M677 402L745.75 354M426 402H234.946C229.215 402 227.99 393.926 233.463 392.225L356.5 354M356.5 354L424 400.5" stroke="#000000" stroke-width="20" stroke-linecap="round"/>
<path d="M234.5 1844L328.319 1668.77M732 1281L551.037 1454.83M371.5 1281L551.037 1454.83M551.037 1454.83L607.499 1509.5L667 1567.11M551.037 1454.83L494.127 1509.5L434.153 1567.11M551.037 1454.83H661.518H772M551.037 1454.83H436.518H322M667 1567.11H822M667 1567.11L721.625 1620L772 1668.77M772 1668.77H867M772 1668.77L883 1835.5M434.153 1567.11H277.5M434.153 1567.11L379.094 1620L328.319 1668.77M328.319 1668.77H234.5M749.5 1363.5H350" stroke="#000000" stroke-width="20" stroke-linecap="round"/>
<path d="M285.5 469.5C496.7 623.9 721.167 538.167 807 476M90.5 1021.5C141 1059 185 1053 232.5 1021.5M239 1021.5C487.4 1138.3 760.5 1070.17 866 1021.5M879 1021.5C924.5 1059 980.5 1046.17 1000.5 1021.5" stroke="#000000" stroke-width="3" stroke-linecap="round"/>
<path d="M281.53 413.696L281.768 413.371C287.339 405.746 298.707 405.712 304.324 413.303C308.448 418.876 307.872 426.628 302.97 431.53L293 441.5L303.072 452.389C307.874 457.58 308.016 465.549 303.404 470.909C297.903 477.302 288.023 477.369 282.439 471.049C277.664 465.646 277.811 457.489 282.777 452.261L293 441.5L283.387 432.646C278.039 427.721 277.24 419.566 281.53 413.696Z" fill="#000000"/>
<path d="M293 441.5L283.387 432.646C278.039 427.721 277.24 419.566 281.53 413.696L281.768 413.371C287.339 405.746 298.707 405.712 304.324 413.303V413.303C308.448 418.876 307.872 426.628 302.97 431.53L293 441.5ZM293 441.5L282.777 452.261C277.811 457.489 277.664 465.646 282.439 471.049V471.049C288.023 477.369 297.903 477.302 303.404 470.909V470.909C308.016 465.549 307.874 457.58 303.072 452.389L293 441.5Z" stroke="#000000" stroke-width="10" stroke-linecap="round"/>
<path d="M792.53 413.696L792.768 413.371C798.339 405.746 809.707 405.712 815.324 413.303C819.448 418.876 818.872 426.628 813.97 431.53L804 441.5L814.072 452.389C818.874 457.58 819.016 465.549 814.404 470.909C808.903 477.302 799.023 477.369 793.439 471.049C788.664 465.646 788.811 457.489 793.777 452.261L804 441.5L794.387 432.646C789.039 427.721 788.24 419.566 792.53 413.696Z" fill="#000000"/>
<path d="M804 441.5L794.387 432.646C789.039 427.721 788.24 419.566 792.53 413.696L792.768 413.371C798.339 405.746 809.707 405.712 815.324 413.303V413.303C819.448 418.876 818.872 426.628 813.97 431.53L804 441.5ZM804 441.5L793.777 452.261C788.811 457.489 788.664 465.646 793.439 471.049V471.049C799.023 477.369 808.903 477.302 814.404 470.909V470.909C819.016 465.549 818.874 457.58 814.072 452.389L804 441.5Z" stroke="#000000" stroke-width="10" stroke-linecap="round"/>
<path d="M988.53 956.696L988.768 956.371C994.339 948.746 1005.71 948.712 1011.32 956.303C1015.45 961.876 1014.87 969.628 1009.97 974.53L1000 984.5L1010.07 995.389C1014.87 1000.58 1015.02 1008.55 1010.4 1013.91C1004.9 1020.3 995.023 1020.37 989.439 1014.05C984.664 1008.65 984.811 1000.49 989.777 995.261L1000 984.5L990.387 975.646C985.039 970.721 984.24 962.566 988.53 956.696Z" fill="#000000"/>
<path d="M1000 984.5L990.387 975.646C985.039 970.721 984.24 962.566 988.53 956.696L988.768 956.371C994.339 948.746 1005.71 948.712 1011.32 956.303V956.303C1015.45 961.876 1014.87 969.628 1009.97 974.53L1000 984.5ZM1000 984.5L989.777 995.261C984.811 1000.49 984.664 1008.65 989.439 1014.05V1014.05C995.023 1020.37 1004.9 1020.3 1010.4 1013.91V1013.91C1015.02 1008.55 1014.87 1000.58 1010.07 995.389L1000 984.5Z" stroke="#000000" stroke-width="10" stroke-linecap="round"/>
<path d="M860.53 962.696L860.768 962.371C866.339 954.746 877.707 954.712 883.324 962.303C887.448 967.876 886.872 975.628 881.97 980.53L872 990.5L882.072 1001.39C886.874 1006.58 887.016 1014.55 882.404 1019.91C876.903 1026.3 867.023 1026.37 861.439 1020.05C856.664 1014.65 856.811 1006.49 861.777 1001.26L872 990.5L862.387 981.646C857.039 976.721 856.24 968.566 860.53 962.696Z" fill="#000000"/>
<path d="M872 990.5L862.387 981.646C857.039 976.721 856.24 968.566 860.53 962.696L860.768 962.371C866.339 954.746 877.707 954.712 883.324 962.303V962.303C887.448 967.876 886.872 975.628 881.97 980.53L872 990.5ZM872 990.5L861.777 1001.26C856.811 1006.49 856.664 1014.65 861.439 1020.05V1020.05C867.023 1026.37 876.903 1026.3 882.404 1019.91V1019.91C887.016 1014.55 886.874 1006.58 882.072 1001.39L872 990.5Z" stroke="#000000" stroke-width="10" stroke-linecap="round"/>
<path d="M220.53 962.696L220.768 962.371C226.339 954.746 237.707 954.712 243.324 962.303C247.448 967.876 246.872 975.628 241.97 980.53L232 990.5L242.072 1001.39C246.874 1006.58 247.016 1014.55 242.404 1019.91C236.903 1026.3 227.023 1026.37 221.439 1020.05C216.664 1014.65 216.811 1006.49 221.777 1001.26L232 990.5L222.387 981.646C217.039 976.721 216.24 968.566 220.53 962.696Z" fill="#000000"/>
<path d="M232 990.5L222.387 981.646C217.039 976.721 216.24 968.566 220.53 962.696L220.768 962.371C226.339 954.746 237.707 954.712 243.324 962.303V962.303C247.448 967.876 246.872 975.628 241.97 980.53L232 990.5ZM232 990.5L221.777 1001.26C216.811 1006.49 216.664 1014.65 221.439 1020.05V1020.05C227.023 1026.37 236.903 1026.3 242.404 1019.91V1019.91C247.016 1014.55 246.874 1006.58 242.072 1001.39L232 990.5Z" stroke="#000000" stroke-width="10" stroke-linecap="round"/>
<path d="M87.5299 962.696L87.7676 962.371C93.3393 954.746 104.707 954.712 110.324 962.303C114.448 967.876 113.872 975.628 108.97 980.53L99 990.5L109.072 1001.39C113.874 1006.58 114.016 1014.55 109.404 1019.91C103.903 1026.3 94.0234 1026.37 88.4389 1020.05C83.6637 1014.65 83.8106 1006.49 88.7772 1001.26L99 990.5L89.3872 981.646C84.0395 976.721 83.2403 968.566 87.5299 962.696Z" fill="#000000"/>
<path d="M99 990.5L89.3872 981.646C84.0395 976.721 83.2403 968.566 87.5299 962.696L87.7676 962.371C93.3393 954.746 104.707 954.712 110.324 962.303V962.303C114.448 967.876 113.872 975.628 108.97 980.53L99 990.5ZM99 990.5L88.7772 1001.26C83.8106 1006.49 83.6637 1014.65 88.4389 1020.05V1020.05C94.0234 1026.37 103.903 1026.3 109.404 1019.91V1019.91C114.016 1014.55 113.874 1006.58 109.072 1001.39L99 990.5Z" stroke="#000000" stroke-width="10" stroke-linecap="round"/>
</svg>
